<mxfile host="app.diagrams.net" agent="Mozilla/5.0 (Windows NT 10.0; Win64; x64) AppleWebKit/537.36 (KHTML, like Gecko) Chrome/138.0.0.0 Safari/537.36" version="28.0.6">
  <diagram id="prtHgNgQTEPvFCAcTncT" name="Page-1">
    <mxGraphModel dx="2320" dy="5049" grid="1" gridSize="10" guides="1" tooltips="1" connect="1" arrows="1" fold="1" page="1" pageScale="1" pageWidth="827" pageHeight="1169" math="0" shadow="0">
      <root>
        <mxCell id="0" />
        <mxCell id="1" parent="0" />
        <mxCell id="tOkdCBK18sVMfZ-bkcjU-12" style="edgeStyle=orthogonalEdgeStyle;rounded=0;orthogonalLoop=1;jettySize=auto;html=1;" edge="1" parent="1" source="tOkdCBK18sVMfZ-bkcjU-9" target="tOkdCBK18sVMfZ-bkcjU-11">
          <mxGeometry relative="1" as="geometry" />
        </mxCell>
        <mxCell id="tOkdCBK18sVMfZ-bkcjU-9" value="Actor" style="shape=umlActor;verticalLabelPosition=bottom;verticalAlign=top;html=1;outlineConnect=0;" vertex="1" parent="1">
          <mxGeometry x="116" y="140" width="30" height="60" as="geometry" />
        </mxCell>
        <mxCell id="tOkdCBK18sVMfZ-bkcjU-72" style="edgeStyle=orthogonalEdgeStyle;rounded=0;orthogonalLoop=1;jettySize=auto;html=1;" edge="1" parent="1" source="tOkdCBK18sVMfZ-bkcjU-11">
          <mxGeometry relative="1" as="geometry">
            <mxPoint x="545" y="170" as="targetPoint" />
          </mxGeometry>
        </mxCell>
        <mxCell id="tOkdCBK18sVMfZ-bkcjU-73" value="train_entity_recognition_model" style="edgeLabel;html=1;align=center;verticalAlign=middle;resizable=0;points=[];" vertex="1" connectable="0" parent="tOkdCBK18sVMfZ-bkcjU-72">
          <mxGeometry x="-0.2465" y="1" relative="1" as="geometry">
            <mxPoint x="18" y="-19" as="offset" />
          </mxGeometry>
        </mxCell>
        <mxCell id="tOkdCBK18sVMfZ-bkcjU-11" value="" style="aspect=fixed;sketch=0;html=1;dashed=0;whitespace=wrap;verticalLabelPosition=bottom;verticalAlign=top;fillColor=#2875E2;strokeColor=#ffffff;points=[[0.005,0.63,0],[0.1,0.2,0],[0.9,0.2,0],[0.5,0,0],[0.995,0.63,0],[0.72,0.99,0],[0.5,1,0],[0.28,0.99,0]];shape=mxgraph.kubernetes.icon2;kubernetesLabel=1;prIcon=api" vertex="1" parent="1">
          <mxGeometry x="285" y="135" width="72.92" height="70" as="geometry" />
        </mxCell>
        <mxCell id="tOkdCBK18sVMfZ-bkcjU-61" value="main.py" style="rounded=1;whiteSpace=wrap;html=1;" vertex="1" parent="1">
          <mxGeometry x="155" y="-50" width="120" height="60" as="geometry" />
        </mxCell>
        <mxCell id="tOkdCBK18sVMfZ-bkcjU-62" value="run()" style="endArrow=classic;html=1;rounded=0;entryX=0.5;entryY=0;entryDx=0;entryDy=0;entryPerimeter=0;exitX=1;exitY=0.5;exitDx=0;exitDy=0;" edge="1" parent="1" source="tOkdCBK18sVMfZ-bkcjU-61" target="tOkdCBK18sVMfZ-bkcjU-11">
          <mxGeometry x="0.4384" y="-25" width="50" height="50" relative="1" as="geometry">
            <mxPoint x="270" y="-20" as="sourcePoint" />
            <mxPoint x="335" y="120" as="targetPoint" />
            <Array as="points">
              <mxPoint x="320" y="-20" />
            </Array>
            <mxPoint as="offset" />
          </mxGeometry>
        </mxCell>
        <mxCell id="tOkdCBK18sVMfZ-bkcjU-75" style="edgeStyle=orthogonalEdgeStyle;rounded=0;orthogonalLoop=1;jettySize=auto;html=1;" edge="1" parent="1">
          <mxGeometry relative="1" as="geometry">
            <mxPoint x="595" y="10" as="targetPoint" />
            <mxPoint x="595" y="140" as="sourcePoint" />
          </mxGeometry>
        </mxCell>
        <mxCell id="tOkdCBK18sVMfZ-bkcjU-76" value="1. create_dataset" style="edgeLabel;html=1;align=center;verticalAlign=middle;resizable=0;points=[];" vertex="1" connectable="0" parent="tOkdCBK18sVMfZ-bkcjU-75">
          <mxGeometry x="-0.1442" y="-1" relative="1" as="geometry">
            <mxPoint x="-51" y="-4" as="offset" />
          </mxGeometry>
        </mxCell>
        <mxCell id="tOkdCBK18sVMfZ-bkcjU-94" style="edgeStyle=orthogonalEdgeStyle;rounded=0;orthogonalLoop=1;jettySize=auto;html=1;entryX=1;entryY=0.5;entryDx=0;entryDy=0;exitX=1;exitY=0;exitDx=0;exitDy=0;" edge="1" parent="1" source="tOkdCBK18sVMfZ-bkcjU-74" target="tOkdCBK18sVMfZ-bkcjU-74">
          <mxGeometry relative="1" as="geometry">
            <mxPoint x="815" y="165" as="targetPoint" />
            <Array as="points">
              <mxPoint x="765" y="140" />
              <mxPoint x="765" y="165" />
            </Array>
          </mxGeometry>
        </mxCell>
        <mxCell id="tOkdCBK18sVMfZ-bkcjU-95" value="7. split_dataset, dataloader and train" style="edgeLabel;html=1;align=center;verticalAlign=middle;resizable=0;points=[];" vertex="1" connectable="0" parent="tOkdCBK18sVMfZ-bkcjU-94">
          <mxGeometry x="-0.3004" y="-3" relative="1" as="geometry">
            <mxPoint x="103" y="7" as="offset" />
          </mxGeometry>
        </mxCell>
        <mxCell id="tOkdCBK18sVMfZ-bkcjU-96" style="edgeStyle=orthogonalEdgeStyle;rounded=0;orthogonalLoop=1;jettySize=auto;html=1;" edge="1" parent="1">
          <mxGeometry relative="1" as="geometry">
            <mxPoint x="695" y="310" as="targetPoint" />
            <mxPoint x="695" y="190" as="sourcePoint" />
          </mxGeometry>
        </mxCell>
        <mxCell id="tOkdCBK18sVMfZ-bkcjU-97" value="8.1. validate_each_epoch" style="edgeLabel;html=1;align=center;verticalAlign=middle;resizable=0;points=[];" vertex="1" connectable="0" parent="tOkdCBK18sVMfZ-bkcjU-96">
          <mxGeometry x="0.1898" relative="1" as="geometry">
            <mxPoint x="70" y="-11" as="offset" />
          </mxGeometry>
        </mxCell>
        <mxCell id="tOkdCBK18sVMfZ-bkcjU-99" style="edgeStyle=orthogonalEdgeStyle;rounded=0;orthogonalLoop=1;jettySize=auto;html=1;exitX=0.06;exitY=1.076;exitDx=0;exitDy=0;exitPerimeter=0;entryX=0.455;entryY=0.001;entryDx=0;entryDy=0;entryPerimeter=0;" edge="1" parent="1" source="tOkdCBK18sVMfZ-bkcjU-74" target="tOkdCBK18sVMfZ-bkcjU-101">
          <mxGeometry relative="1" as="geometry">
            <mxPoint x="555" y="320" as="targetPoint" />
          </mxGeometry>
        </mxCell>
        <mxCell id="tOkdCBK18sVMfZ-bkcjU-100" value="8.2 save_model_each_epoch" style="edgeLabel;html=1;align=center;verticalAlign=middle;resizable=0;points=[];" vertex="1" connectable="0" parent="tOkdCBK18sVMfZ-bkcjU-99">
          <mxGeometry x="0.3062" y="-1" relative="1" as="geometry">
            <mxPoint x="81" y="15" as="offset" />
          </mxGeometry>
        </mxCell>
        <mxCell id="tOkdCBK18sVMfZ-bkcjU-74" value="EntityRecognitionModelTrain" style="fontStyle=0;html=1;whiteSpace=wrap;" vertex="1" parent="1">
          <mxGeometry x="545" y="140" width="180" height="50" as="geometry" />
        </mxCell>
        <mxCell id="tOkdCBK18sVMfZ-bkcjU-78" style="edgeStyle=orthogonalEdgeStyle;rounded=0;orthogonalLoop=1;jettySize=auto;html=1;exitX=0.25;exitY=0;exitDx=0;exitDy=0;entryX=0.186;entryY=1.011;entryDx=0;entryDy=0;entryPerimeter=0;" edge="1" parent="1" source="tOkdCBK18sVMfZ-bkcjU-77" target="tOkdCBK18sVMfZ-bkcjU-80">
          <mxGeometry relative="1" as="geometry">
            <mxPoint x="635" y="-140" as="targetPoint" />
          </mxGeometry>
        </mxCell>
        <mxCell id="tOkdCBK18sVMfZ-bkcjU-79" value="2. extract_text_from_image" style="edgeLabel;html=1;align=center;verticalAlign=middle;resizable=0;points=[];" vertex="1" connectable="0" parent="tOkdCBK18sVMfZ-bkcjU-78">
          <mxGeometry x="0.2105" y="1" relative="1" as="geometry">
            <mxPoint x="-69" y="6" as="offset" />
          </mxGeometry>
        </mxCell>
        <mxCell id="tOkdCBK18sVMfZ-bkcjU-92" style="edgeStyle=orthogonalEdgeStyle;rounded=0;orthogonalLoop=1;jettySize=auto;html=1;entryX=0.75;entryY=0;entryDx=0;entryDy=0;exitX=0.797;exitY=0.983;exitDx=0;exitDy=0;exitPerimeter=0;" edge="1" parent="1">
          <mxGeometry relative="1" as="geometry">
            <mxPoint x="675" y="9.319999999999936" as="sourcePoint" />
            <mxPoint x="675.45" y="140" as="targetPoint" />
          </mxGeometry>
        </mxCell>
        <mxCell id="tOkdCBK18sVMfZ-bkcjU-93" value="6. return_dataset" style="edgeLabel;html=1;align=center;verticalAlign=middle;resizable=0;points=[];" vertex="1" connectable="0" parent="tOkdCBK18sVMfZ-bkcjU-92">
          <mxGeometry x="0.0582" y="1" relative="1" as="geometry">
            <mxPoint x="48" as="offset" />
          </mxGeometry>
        </mxCell>
        <mxCell id="tOkdCBK18sVMfZ-bkcjU-77" value="EntityRecognitionDataset" style="fontStyle=0;html=1;whiteSpace=wrap;" vertex="1" parent="1">
          <mxGeometry x="560" y="-30" width="150" height="40" as="geometry" />
        </mxCell>
        <mxCell id="tOkdCBK18sVMfZ-bkcjU-81" style="edgeStyle=orthogonalEdgeStyle;rounded=0;orthogonalLoop=1;jettySize=auto;html=1;exitX=0.815;exitY=0.919;exitDx=0;exitDy=0;exitPerimeter=0;" edge="1" parent="1" source="tOkdCBK18sVMfZ-bkcjU-80">
          <mxGeometry relative="1" as="geometry">
            <mxPoint x="673" y="-30" as="targetPoint" />
          </mxGeometry>
        </mxCell>
        <mxCell id="tOkdCBK18sVMfZ-bkcjU-82" value="4. return text from image" style="edgeLabel;html=1;align=center;verticalAlign=middle;resizable=0;points=[];" vertex="1" connectable="0" parent="tOkdCBK18sVMfZ-bkcjU-81">
          <mxGeometry x="-0.0255" relative="1" as="geometry">
            <mxPoint x="72" as="offset" />
          </mxGeometry>
        </mxCell>
        <mxCell id="tOkdCBK18sVMfZ-bkcjU-80" value="OCRModel&lt;div&gt;(easyocr)&lt;/div&gt;" style="fontStyle=0;html=1;whiteSpace=wrap;" vertex="1" parent="1">
          <mxGeometry x="575" y="-180" width="120" height="40" as="geometry" />
        </mxCell>
        <mxCell id="tOkdCBK18sVMfZ-bkcjU-86" value="" style="endArrow=classic;startArrow=classic;html=1;rounded=0;entryX=0.5;entryY=0;entryDx=0;entryDy=0;exitX=0.5;exitY=1;exitDx=0;exitDy=0;" edge="1" parent="1" source="tOkdCBK18sVMfZ-bkcjU-87" target="tOkdCBK18sVMfZ-bkcjU-80">
          <mxGeometry width="50" height="50" relative="1" as="geometry">
            <mxPoint x="695" as="sourcePoint" />
            <mxPoint x="745" y="-50" as="targetPoint" />
          </mxGeometry>
        </mxCell>
        <mxCell id="tOkdCBK18sVMfZ-bkcjU-88" value="3. image preprocessing" style="edgeLabel;html=1;align=center;verticalAlign=middle;resizable=0;points=[];" vertex="1" connectable="0" parent="tOkdCBK18sVMfZ-bkcjU-86">
          <mxGeometry x="0.04" y="-1" relative="1" as="geometry">
            <mxPoint x="-59" as="offset" />
          </mxGeometry>
        </mxCell>
        <mxCell id="tOkdCBK18sVMfZ-bkcjU-87" value="image_preprocessing.py" style="rounded=1;whiteSpace=wrap;html=1;" vertex="1" parent="1">
          <mxGeometry x="565" y="-310" width="140" height="80" as="geometry" />
        </mxCell>
        <mxCell id="tOkdCBK18sVMfZ-bkcjU-89" value="text_preprocessing.py" style="rounded=1;whiteSpace=wrap;html=1;" vertex="1" parent="1">
          <mxGeometry x="845" y="-40" width="120" height="60" as="geometry" />
        </mxCell>
        <mxCell id="tOkdCBK18sVMfZ-bkcjU-90" value="" style="endArrow=classic;startArrow=classic;html=1;rounded=0;exitX=1;exitY=0.5;exitDx=0;exitDy=0;entryX=0;entryY=0.5;entryDx=0;entryDy=0;" edge="1" parent="1" source="tOkdCBK18sVMfZ-bkcjU-77" target="tOkdCBK18sVMfZ-bkcjU-89">
          <mxGeometry width="50" height="50" relative="1" as="geometry">
            <mxPoint x="785" y="-90" as="sourcePoint" />
            <mxPoint x="835" y="-140" as="targetPoint" />
          </mxGeometry>
        </mxCell>
        <mxCell id="tOkdCBK18sVMfZ-bkcjU-91" value="5. text preprocessing" style="edgeLabel;html=1;align=center;verticalAlign=middle;resizable=0;points=[];" vertex="1" connectable="0" parent="tOkdCBK18sVMfZ-bkcjU-90">
          <mxGeometry x="-0.2382" y="1" relative="1" as="geometry">
            <mxPoint x="14" y="-9" as="offset" />
          </mxGeometry>
        </mxCell>
        <mxCell id="tOkdCBK18sVMfZ-bkcjU-98" value="EntityRecognitionModelEvaluator" style="fontStyle=0;html=1;whiteSpace=wrap;" vertex="1" parent="1">
          <mxGeometry x="595" y="310" width="200" height="50" as="geometry" />
        </mxCell>
        <mxCell id="tOkdCBK18sVMfZ-bkcjU-101" value="utils.py" style="rounded=1;whiteSpace=wrap;html=1;" vertex="1" parent="1">
          <mxGeometry x="465" y="310" width="110" height="50" as="geometry" />
        </mxCell>
        <mxCell id="tOkdCBK18sVMfZ-bkcjU-102" style="edgeStyle=orthogonalEdgeStyle;rounded=0;orthogonalLoop=1;jettySize=auto;html=1;" edge="1" parent="1" source="tOkdCBK18sVMfZ-bkcjU-103" target="tOkdCBK18sVMfZ-bkcjU-106">
          <mxGeometry relative="1" as="geometry" />
        </mxCell>
        <mxCell id="tOkdCBK18sVMfZ-bkcjU-103" value="Actor" style="shape=umlActor;verticalLabelPosition=bottom;verticalAlign=top;html=1;outlineConnect=0;" vertex="1" parent="1">
          <mxGeometry x="106.5" y="918" width="30" height="60" as="geometry" />
        </mxCell>
        <mxCell id="tOkdCBK18sVMfZ-bkcjU-104" style="edgeStyle=orthogonalEdgeStyle;rounded=0;orthogonalLoop=1;jettySize=auto;html=1;" edge="1" parent="1" source="tOkdCBK18sVMfZ-bkcjU-106">
          <mxGeometry relative="1" as="geometry">
            <mxPoint x="535.5" y="948" as="targetPoint" />
          </mxGeometry>
        </mxCell>
        <mxCell id="tOkdCBK18sVMfZ-bkcjU-105" value="train_classifier_model" style="edgeLabel;html=1;align=center;verticalAlign=middle;resizable=0;points=[];" vertex="1" connectable="0" parent="tOkdCBK18sVMfZ-bkcjU-104">
          <mxGeometry x="-0.2465" y="1" relative="1" as="geometry">
            <mxPoint x="18" y="-19" as="offset" />
          </mxGeometry>
        </mxCell>
        <mxCell id="tOkdCBK18sVMfZ-bkcjU-106" value="" style="aspect=fixed;sketch=0;html=1;dashed=0;whitespace=wrap;verticalLabelPosition=bottom;verticalAlign=top;fillColor=#2875E2;strokeColor=#ffffff;points=[[0.005,0.63,0],[0.1,0.2,0],[0.9,0.2,0],[0.5,0,0],[0.995,0.63,0],[0.72,0.99,0],[0.5,1,0],[0.28,0.99,0]];shape=mxgraph.kubernetes.icon2;kubernetesLabel=1;prIcon=api" vertex="1" parent="1">
          <mxGeometry x="275.5" y="913" width="72.92" height="70" as="geometry" />
        </mxCell>
        <mxCell id="tOkdCBK18sVMfZ-bkcjU-107" value="main.py" style="rounded=1;whiteSpace=wrap;html=1;" vertex="1" parent="1">
          <mxGeometry x="145.5" y="728" width="120" height="60" as="geometry" />
        </mxCell>
        <mxCell id="tOkdCBK18sVMfZ-bkcjU-108" value="run()" style="endArrow=classic;html=1;rounded=0;entryX=0.5;entryY=0;entryDx=0;entryDy=0;entryPerimeter=0;exitX=1;exitY=0.5;exitDx=0;exitDy=0;" edge="1" parent="1" source="tOkdCBK18sVMfZ-bkcjU-107" target="tOkdCBK18sVMfZ-bkcjU-106">
          <mxGeometry x="0.4384" y="-25" width="50" height="50" relative="1" as="geometry">
            <mxPoint x="260.5" y="758" as="sourcePoint" />
            <mxPoint x="325.5" y="898" as="targetPoint" />
            <Array as="points">
              <mxPoint x="310.5" y="758" />
            </Array>
            <mxPoint as="offset" />
          </mxGeometry>
        </mxCell>
        <mxCell id="tOkdCBK18sVMfZ-bkcjU-109" style="edgeStyle=orthogonalEdgeStyle;rounded=0;orthogonalLoop=1;jettySize=auto;html=1;" edge="1" parent="1">
          <mxGeometry relative="1" as="geometry">
            <mxPoint x="585.5" y="788" as="targetPoint" />
            <mxPoint x="585.5" y="918" as="sourcePoint" />
          </mxGeometry>
        </mxCell>
        <mxCell id="tOkdCBK18sVMfZ-bkcjU-110" value="1. create_dataset" style="edgeLabel;html=1;align=center;verticalAlign=middle;resizable=0;points=[];" vertex="1" connectable="0" parent="tOkdCBK18sVMfZ-bkcjU-109">
          <mxGeometry x="-0.1442" y="-1" relative="1" as="geometry">
            <mxPoint x="-51" y="-4" as="offset" />
          </mxGeometry>
        </mxCell>
        <mxCell id="tOkdCBK18sVMfZ-bkcjU-111" style="edgeStyle=orthogonalEdgeStyle;rounded=0;orthogonalLoop=1;jettySize=auto;html=1;entryX=1;entryY=0.5;entryDx=0;entryDy=0;exitX=1;exitY=0;exitDx=0;exitDy=0;" edge="1" parent="1" source="tOkdCBK18sVMfZ-bkcjU-117" target="tOkdCBK18sVMfZ-bkcjU-117">
          <mxGeometry relative="1" as="geometry">
            <mxPoint x="805.5" y="943" as="targetPoint" />
            <Array as="points">
              <mxPoint x="755.5" y="918" />
              <mxPoint x="755.5" y="943" />
            </Array>
          </mxGeometry>
        </mxCell>
        <mxCell id="tOkdCBK18sVMfZ-bkcjU-112" value="9. split_dataset, dataloader and train" style="edgeLabel;html=1;align=center;verticalAlign=middle;resizable=0;points=[];" vertex="1" connectable="0" parent="tOkdCBK18sVMfZ-bkcjU-111">
          <mxGeometry x="-0.3004" y="-3" relative="1" as="geometry">
            <mxPoint x="103" y="7" as="offset" />
          </mxGeometry>
        </mxCell>
        <mxCell id="tOkdCBK18sVMfZ-bkcjU-113" style="edgeStyle=orthogonalEdgeStyle;rounded=0;orthogonalLoop=1;jettySize=auto;html=1;" edge="1" parent="1">
          <mxGeometry relative="1" as="geometry">
            <mxPoint x="685.5" y="1088" as="targetPoint" />
            <mxPoint x="685.5" y="968" as="sourcePoint" />
          </mxGeometry>
        </mxCell>
        <mxCell id="tOkdCBK18sVMfZ-bkcjU-114" value="10.1. validate_each_epoch" style="edgeLabel;html=1;align=center;verticalAlign=middle;resizable=0;points=[];" vertex="1" connectable="0" parent="tOkdCBK18sVMfZ-bkcjU-113">
          <mxGeometry x="0.1898" relative="1" as="geometry">
            <mxPoint x="70" y="-11" as="offset" />
          </mxGeometry>
        </mxCell>
        <mxCell id="tOkdCBK18sVMfZ-bkcjU-115" style="edgeStyle=orthogonalEdgeStyle;rounded=0;orthogonalLoop=1;jettySize=auto;html=1;exitX=0.06;exitY=1.076;exitDx=0;exitDy=0;exitPerimeter=0;entryX=0.455;entryY=0.001;entryDx=0;entryDy=0;entryPerimeter=0;" edge="1" parent="1" source="tOkdCBK18sVMfZ-bkcjU-117" target="tOkdCBK18sVMfZ-bkcjU-133">
          <mxGeometry relative="1" as="geometry">
            <mxPoint x="545.5" y="1098" as="targetPoint" />
          </mxGeometry>
        </mxCell>
        <mxCell id="tOkdCBK18sVMfZ-bkcjU-116" value="10.2. save_model_each_epoch" style="edgeLabel;html=1;align=center;verticalAlign=middle;resizable=0;points=[];" vertex="1" connectable="0" parent="tOkdCBK18sVMfZ-bkcjU-115">
          <mxGeometry x="0.3062" y="-1" relative="1" as="geometry">
            <mxPoint x="81" y="15" as="offset" />
          </mxGeometry>
        </mxCell>
        <mxCell id="tOkdCBK18sVMfZ-bkcjU-117" value="ClassifierModelTrainer" style="fontStyle=0;html=1;whiteSpace=wrap;" vertex="1" parent="1">
          <mxGeometry x="535.5" y="918" width="180" height="50" as="geometry" />
        </mxCell>
        <mxCell id="tOkdCBK18sVMfZ-bkcjU-118" style="edgeStyle=orthogonalEdgeStyle;rounded=0;orthogonalLoop=1;jettySize=auto;html=1;exitX=0.25;exitY=0;exitDx=0;exitDy=0;entryX=0.186;entryY=1.011;entryDx=0;entryDy=0;entryPerimeter=0;" edge="1" parent="1" source="tOkdCBK18sVMfZ-bkcjU-122" target="tOkdCBK18sVMfZ-bkcjU-125">
          <mxGeometry relative="1" as="geometry">
            <mxPoint x="625.5" y="638" as="targetPoint" />
          </mxGeometry>
        </mxCell>
        <mxCell id="tOkdCBK18sVMfZ-bkcjU-119" value="2. extract_text_from_image" style="edgeLabel;html=1;align=center;verticalAlign=middle;resizable=0;points=[];" vertex="1" connectable="0" parent="tOkdCBK18sVMfZ-bkcjU-118">
          <mxGeometry x="0.2105" y="1" relative="1" as="geometry">
            <mxPoint x="-69" y="6" as="offset" />
          </mxGeometry>
        </mxCell>
        <mxCell id="tOkdCBK18sVMfZ-bkcjU-120" style="edgeStyle=orthogonalEdgeStyle;rounded=0;orthogonalLoop=1;jettySize=auto;html=1;entryX=0.75;entryY=0;entryDx=0;entryDy=0;exitX=0.797;exitY=0.983;exitDx=0;exitDy=0;exitPerimeter=0;" edge="1" parent="1">
          <mxGeometry relative="1" as="geometry">
            <mxPoint x="665.5" y="787.3199999999999" as="sourcePoint" />
            <mxPoint x="665.95" y="918" as="targetPoint" />
          </mxGeometry>
        </mxCell>
        <mxCell id="tOkdCBK18sVMfZ-bkcjU-121" value="8. return_dataset" style="edgeLabel;html=1;align=center;verticalAlign=middle;resizable=0;points=[];" vertex="1" connectable="0" parent="tOkdCBK18sVMfZ-bkcjU-120">
          <mxGeometry x="0.0582" y="1" relative="1" as="geometry">
            <mxPoint x="48" as="offset" />
          </mxGeometry>
        </mxCell>
        <mxCell id="tOkdCBK18sVMfZ-bkcjU-137" style="edgeStyle=orthogonalEdgeStyle;rounded=0;orthogonalLoop=1;jettySize=auto;html=1;entryX=0;entryY=0.25;entryDx=0;entryDy=0;" edge="1" parent="1" source="tOkdCBK18sVMfZ-bkcjU-122" target="tOkdCBK18sVMfZ-bkcjU-134">
          <mxGeometry relative="1" as="geometry">
            <Array as="points">
              <mxPoint x="731" y="759" />
              <mxPoint x="731" y="759" />
            </Array>
          </mxGeometry>
        </mxCell>
        <mxCell id="tOkdCBK18sVMfZ-bkcjU-139" value="5 get_ner_labels" style="edgeLabel;html=1;align=center;verticalAlign=middle;resizable=0;points=[];" vertex="1" connectable="0" parent="tOkdCBK18sVMfZ-bkcjU-137">
          <mxGeometry x="-0.0565" y="-1" relative="1" as="geometry">
            <mxPoint y="-12" as="offset" />
          </mxGeometry>
        </mxCell>
        <mxCell id="tOkdCBK18sVMfZ-bkcjU-122" value="ClassifierDataset" style="fontStyle=0;html=1;whiteSpace=wrap;" vertex="1" parent="1">
          <mxGeometry x="550.5" y="748" width="150" height="40" as="geometry" />
        </mxCell>
        <mxCell id="tOkdCBK18sVMfZ-bkcjU-123" style="edgeStyle=orthogonalEdgeStyle;rounded=0;orthogonalLoop=1;jettySize=auto;html=1;exitX=0.815;exitY=0.919;exitDx=0;exitDy=0;exitPerimeter=0;" edge="1" parent="1" source="tOkdCBK18sVMfZ-bkcjU-125">
          <mxGeometry relative="1" as="geometry">
            <mxPoint x="663.5" y="748" as="targetPoint" />
          </mxGeometry>
        </mxCell>
        <mxCell id="tOkdCBK18sVMfZ-bkcjU-124" value="4. return text from image" style="edgeLabel;html=1;align=center;verticalAlign=middle;resizable=0;points=[];" vertex="1" connectable="0" parent="tOkdCBK18sVMfZ-bkcjU-123">
          <mxGeometry x="-0.0255" relative="1" as="geometry">
            <mxPoint x="72" as="offset" />
          </mxGeometry>
        </mxCell>
        <mxCell id="tOkdCBK18sVMfZ-bkcjU-125" value="OCRModel&lt;div&gt;(easyocr)&lt;/div&gt;" style="fontStyle=0;html=1;whiteSpace=wrap;" vertex="1" parent="1">
          <mxGeometry x="565.5" y="598" width="120" height="40" as="geometry" />
        </mxCell>
        <mxCell id="tOkdCBK18sVMfZ-bkcjU-126" value="" style="endArrow=classic;startArrow=classic;html=1;rounded=0;entryX=0.5;entryY=0;entryDx=0;entryDy=0;exitX=0.5;exitY=1;exitDx=0;exitDy=0;" edge="1" parent="1" source="tOkdCBK18sVMfZ-bkcjU-128" target="tOkdCBK18sVMfZ-bkcjU-125">
          <mxGeometry width="50" height="50" relative="1" as="geometry">
            <mxPoint x="685.5" y="778" as="sourcePoint" />
            <mxPoint x="735.5" y="728" as="targetPoint" />
          </mxGeometry>
        </mxCell>
        <mxCell id="tOkdCBK18sVMfZ-bkcjU-127" value="3. image preprocessing" style="edgeLabel;html=1;align=center;verticalAlign=middle;resizable=0;points=[];" vertex="1" connectable="0" parent="tOkdCBK18sVMfZ-bkcjU-126">
          <mxGeometry x="0.04" y="-1" relative="1" as="geometry">
            <mxPoint x="-59" as="offset" />
          </mxGeometry>
        </mxCell>
        <mxCell id="tOkdCBK18sVMfZ-bkcjU-128" value="image_preprocessing.py" style="rounded=1;whiteSpace=wrap;html=1;" vertex="1" parent="1">
          <mxGeometry x="555.5" y="468" width="140" height="80" as="geometry" />
        </mxCell>
        <mxCell id="tOkdCBK18sVMfZ-bkcjU-132" value="EntityRecognitionModelEvaluator" style="fontStyle=0;html=1;whiteSpace=wrap;" vertex="1" parent="1">
          <mxGeometry x="585.5" y="1088" width="200" height="50" as="geometry" />
        </mxCell>
        <mxCell id="tOkdCBK18sVMfZ-bkcjU-133" value="utils.py" style="rounded=1;whiteSpace=wrap;html=1;" vertex="1" parent="1">
          <mxGeometry x="455.5" y="1088" width="110" height="50" as="geometry" />
        </mxCell>
        <mxCell id="tOkdCBK18sVMfZ-bkcjU-138" style="edgeStyle=orthogonalEdgeStyle;rounded=0;orthogonalLoop=1;jettySize=auto;html=1;entryX=1;entryY=0.75;entryDx=0;entryDy=0;" edge="1" parent="1" source="tOkdCBK18sVMfZ-bkcjU-134" target="tOkdCBK18sVMfZ-bkcjU-122">
          <mxGeometry relative="1" as="geometry">
            <Array as="points">
              <mxPoint x="801" y="778" />
              <mxPoint x="801" y="778" />
            </Array>
          </mxGeometry>
        </mxCell>
        <mxCell id="tOkdCBK18sVMfZ-bkcjU-140" value="7. return_ner_labels" style="edgeLabel;html=1;align=center;verticalAlign=middle;resizable=0;points=[];" vertex="1" connectable="0" parent="tOkdCBK18sVMfZ-bkcjU-138">
          <mxGeometry x="0.1359" y="2" relative="1" as="geometry">
            <mxPoint x="11" y="8" as="offset" />
          </mxGeometry>
        </mxCell>
        <mxCell id="tOkdCBK18sVMfZ-bkcjU-134" value="EntityRecognitionModel" style="fontStyle=0;html=1;whiteSpace=wrap;" vertex="1" parent="1">
          <mxGeometry x="838" y="748" width="153" height="45" as="geometry" />
        </mxCell>
        <mxCell id="tOkdCBK18sVMfZ-bkcjU-141" value="text_preprocessing.py" style="rounded=1;whiteSpace=wrap;html=1;" vertex="1" parent="1">
          <mxGeometry x="1120.1818181818182" y="740.5" width="120" height="60" as="geometry" />
        </mxCell>
        <mxCell id="tOkdCBK18sVMfZ-bkcjU-144" value="" style="endArrow=classic;startArrow=classic;html=1;rounded=0;exitX=1;exitY=0.5;exitDx=0;exitDy=0;entryX=0;entryY=0.5;entryDx=0;entryDy=0;" edge="1" parent="1" source="tOkdCBK18sVMfZ-bkcjU-134" target="tOkdCBK18sVMfZ-bkcjU-141">
          <mxGeometry width="50" height="50" relative="1" as="geometry">
            <mxPoint x="1151" y="638" as="sourcePoint" />
            <mxPoint x="1201" y="588" as="targetPoint" />
          </mxGeometry>
        </mxCell>
        <mxCell id="tOkdCBK18sVMfZ-bkcjU-145" value="&lt;span style=&quot;color: rgb(0, 0, 0); font-family: Helvetica; font-size: 11px; font-style: normal; font-variant-ligatures: normal; font-variant-caps: normal; font-weight: 400; letter-spacing: normal; orphans: 2; text-align: center; text-indent: 0px; text-transform: none; widows: 2; word-spacing: 0px; -webkit-text-stroke-width: 0px; white-space: nowrap; background-color: rgb(255, 255, 255); text-decoration-thickness: initial; text-decoration-style: initial; text-decoration-color: initial; float: none; display: inline !important;&quot;&gt;6. text preprocessing&lt;/span&gt;" style="text;whiteSpace=wrap;html=1;" vertex="1" parent="1">
          <mxGeometry x="1006" y="748" width="140" height="40" as="geometry" />
        </mxCell>
        <mxCell id="tOkdCBK18sVMfZ-bkcjU-146" style="edgeStyle=orthogonalEdgeStyle;rounded=0;orthogonalLoop=1;jettySize=auto;html=1;" edge="1" parent="1" source="tOkdCBK18sVMfZ-bkcjU-147" target="tOkdCBK18sVMfZ-bkcjU-150">
          <mxGeometry relative="1" as="geometry" />
        </mxCell>
        <mxCell id="tOkdCBK18sVMfZ-bkcjU-147" value="Actor" style="shape=umlActor;verticalLabelPosition=bottom;verticalAlign=top;html=1;outlineConnect=0;" vertex="1" parent="1">
          <mxGeometry x="95.5" y="1420" width="30" height="60" as="geometry" />
        </mxCell>
        <mxCell id="tOkdCBK18sVMfZ-bkcjU-148" style="edgeStyle=orthogonalEdgeStyle;rounded=0;orthogonalLoop=1;jettySize=auto;html=1;" edge="1" parent="1" source="tOkdCBK18sVMfZ-bkcjU-150">
          <mxGeometry relative="1" as="geometry">
            <mxPoint x="524.5" y="1450" as="targetPoint" />
          </mxGeometry>
        </mxCell>
        <mxCell id="tOkdCBK18sVMfZ-bkcjU-149" value="extract_nutritional_info_from_folder" style="edgeLabel;html=1;align=center;verticalAlign=middle;resizable=0;points=[];" vertex="1" connectable="0" parent="tOkdCBK18sVMfZ-bkcjU-148">
          <mxGeometry x="-0.2465" y="1" relative="1" as="geometry">
            <mxPoint x="18" y="-9" as="offset" />
          </mxGeometry>
        </mxCell>
        <mxCell id="tOkdCBK18sVMfZ-bkcjU-150" value="" style="aspect=fixed;sketch=0;html=1;dashed=0;whitespace=wrap;verticalLabelPosition=bottom;verticalAlign=top;fillColor=#2875E2;strokeColor=#ffffff;points=[[0.005,0.63,0],[0.1,0.2,0],[0.9,0.2,0],[0.5,0,0],[0.995,0.63,0],[0.72,0.99,0],[0.5,1,0],[0.28,0.99,0]];shape=mxgraph.kubernetes.icon2;kubernetesLabel=1;prIcon=api" vertex="1" parent="1">
          <mxGeometry x="264.5" y="1415" width="72.92" height="70" as="geometry" />
        </mxCell>
        <mxCell id="tOkdCBK18sVMfZ-bkcjU-151" value="main.py" style="rounded=1;whiteSpace=wrap;html=1;" vertex="1" parent="1">
          <mxGeometry x="134.5" y="1230" width="120" height="60" as="geometry" />
        </mxCell>
        <mxCell id="tOkdCBK18sVMfZ-bkcjU-152" value="run()" style="endArrow=classic;html=1;rounded=0;entryX=0.5;entryY=0;entryDx=0;entryDy=0;entryPerimeter=0;exitX=1;exitY=0.5;exitDx=0;exitDy=0;" edge="1" parent="1" source="tOkdCBK18sVMfZ-bkcjU-151" target="tOkdCBK18sVMfZ-bkcjU-150">
          <mxGeometry x="0.4384" y="-25" width="50" height="50" relative="1" as="geometry">
            <mxPoint x="249.5" y="1260" as="sourcePoint" />
            <mxPoint x="314.5" y="1400" as="targetPoint" />
            <Array as="points">
              <mxPoint x="299.5" y="1260" />
            </Array>
            <mxPoint as="offset" />
          </mxGeometry>
        </mxCell>
        <mxCell id="tOkdCBK18sVMfZ-bkcjU-183" style="edgeStyle=orthogonalEdgeStyle;rounded=0;orthogonalLoop=1;jettySize=auto;html=1;exitX=1;exitY=0.5;exitDx=0;exitDy=0;entryX=1;entryY=0.25;entryDx=0;entryDy=0;" edge="1" parent="1" source="tOkdCBK18sVMfZ-bkcjU-161" target="tOkdCBK18sVMfZ-bkcjU-168">
          <mxGeometry relative="1" as="geometry">
            <mxPoint x="630" y="1500" as="targetPoint" />
            <Array as="points">
              <mxPoint x="720" y="1445" />
              <mxPoint x="720" y="1550" />
            </Array>
          </mxGeometry>
        </mxCell>
        <mxCell id="tOkdCBK18sVMfZ-bkcjU-201" value="1. feed&lt;span style=&quot;background-color: light-dark(#ffffff, var(--ge-dark-color, #121212)); color: light-dark(rgb(0, 0, 0), rgb(255, 255, 255));&quot;&gt;_images&lt;/span&gt;" style="edgeLabel;html=1;align=center;verticalAlign=middle;resizable=0;points=[];" vertex="1" connectable="0" parent="tOkdCBK18sVMfZ-bkcjU-183">
          <mxGeometry x="0.0003" y="5" relative="1" as="geometry">
            <mxPoint x="35" y="-5" as="offset" />
          </mxGeometry>
        </mxCell>
        <mxCell id="tOkdCBK18sVMfZ-bkcjU-161" value="NutritionExtractionPipeline" style="fontStyle=0;html=1;whiteSpace=wrap;" vertex="1" parent="1">
          <mxGeometry x="524.5" y="1420" width="180" height="50" as="geometry" />
        </mxCell>
        <mxCell id="tOkdCBK18sVMfZ-bkcjU-190" style="edgeStyle=orthogonalEdgeStyle;rounded=0;orthogonalLoop=1;jettySize=auto;html=1;" edge="1" parent="1" source="tOkdCBK18sVMfZ-bkcjU-168" target="tOkdCBK18sVMfZ-bkcjU-184">
          <mxGeometry relative="1" as="geometry" />
        </mxCell>
        <mxCell id="tOkdCBK18sVMfZ-bkcjU-191" value="3. ocr_prediction" style="edgeLabel;html=1;align=center;verticalAlign=middle;resizable=0;points=[];" vertex="1" connectable="0" parent="tOkdCBK18sVMfZ-bkcjU-190">
          <mxGeometry x="0.1714" y="-1" relative="1" as="geometry">
            <mxPoint x="47" as="offset" />
          </mxGeometry>
        </mxCell>
        <mxCell id="tOkdCBK18sVMfZ-bkcjU-168" value="OCRModel&lt;div&gt;(easyocr)&lt;/div&gt;" style="fontStyle=0;html=1;whiteSpace=wrap;" vertex="1" parent="1">
          <mxGeometry x="539.5" y="1540" width="150" height="40" as="geometry" />
        </mxCell>
        <mxCell id="tOkdCBK18sVMfZ-bkcjU-198" style="edgeStyle=orthogonalEdgeStyle;rounded=0;orthogonalLoop=1;jettySize=auto;html=1;entryX=1;entryY=0.5;entryDx=0;entryDy=0;" edge="1" parent="1" source="tOkdCBK18sVMfZ-bkcjU-184" target="tOkdCBK18sVMfZ-bkcjU-195">
          <mxGeometry relative="1" as="geometry" />
        </mxCell>
        <mxCell id="tOkdCBK18sVMfZ-bkcjU-199" value="5. ner_prediction" style="edgeLabel;html=1;align=center;verticalAlign=middle;resizable=0;points=[];" vertex="1" connectable="0" parent="tOkdCBK18sVMfZ-bkcjU-198">
          <mxGeometry x="-0.0805" y="2" relative="1" as="geometry">
            <mxPoint x="-10" y="-12" as="offset" />
          </mxGeometry>
        </mxCell>
        <mxCell id="tOkdCBK18sVMfZ-bkcjU-184" value="EntityRecognitionModel" style="fontStyle=0;html=1;whiteSpace=wrap;" vertex="1" parent="1">
          <mxGeometry x="540" y="1650" width="147.25" height="40" as="geometry" />
        </mxCell>
        <mxCell id="tOkdCBK18sVMfZ-bkcjU-185" value="2. image preprocessing" style="edgeLabel;html=1;align=center;verticalAlign=middle;resizable=0;points=[];" vertex="1" connectable="0" parent="1">
          <mxGeometry x="750" y="1565.9957894736842" as="geometry">
            <mxPoint x="3" y="16" as="offset" />
          </mxGeometry>
        </mxCell>
        <mxCell id="tOkdCBK18sVMfZ-bkcjU-186" value="image_preprocessing.py" style="rounded=1;whiteSpace=wrap;html=1;" vertex="1" parent="1">
          <mxGeometry x="827" y="1530" width="140" height="80" as="geometry" />
        </mxCell>
        <mxCell id="tOkdCBK18sVMfZ-bkcjU-188" value="&lt;span style=&quot;color: rgb(0, 0, 0); font-family: Helvetica; font-size: 11px; font-style: normal; font-variant-ligatures: normal; font-variant-caps: normal; font-weight: 400; letter-spacing: normal; orphans: 2; text-align: center; text-indent: 0px; text-transform: none; widows: 2; word-spacing: 0px; -webkit-text-stroke-width: 0px; white-space: nowrap; background-color: rgb(255, 255, 255); text-decoration-thickness: initial; text-decoration-style: initial; text-decoration-color: initial; float: none; display: inline !important;&quot;&gt;4. text preprocessing&lt;/span&gt;" style="text;whiteSpace=wrap;html=1;" vertex="1" parent="1">
          <mxGeometry x="701" y="1649" width="140" height="40" as="geometry" />
        </mxCell>
        <mxCell id="tOkdCBK18sVMfZ-bkcjU-189" value="text_preprocessing.py" style="rounded=1;whiteSpace=wrap;html=1;" vertex="1" parent="1">
          <mxGeometry x="827" y="1630" width="143" height="80" as="geometry" />
        </mxCell>
        <mxCell id="tOkdCBK18sVMfZ-bkcjU-193" value="" style="endArrow=classic;startArrow=classic;html=1;rounded=0;exitX=1;exitY=0.75;exitDx=0;exitDy=0;entryX=0;entryY=0.5;entryDx=0;entryDy=0;" edge="1" parent="1" source="tOkdCBK18sVMfZ-bkcjU-168" target="tOkdCBK18sVMfZ-bkcjU-186">
          <mxGeometry width="50" height="50" relative="1" as="geometry">
            <mxPoint x="790" y="1410" as="sourcePoint" />
            <mxPoint x="840" y="1360" as="targetPoint" />
          </mxGeometry>
        </mxCell>
        <mxCell id="tOkdCBK18sVMfZ-bkcjU-194" value="" style="endArrow=classic;startArrow=classic;html=1;rounded=0;exitX=1;exitY=0.75;exitDx=0;exitDy=0;entryX=0;entryY=0.5;entryDx=0;entryDy=0;" edge="1" parent="1">
          <mxGeometry width="50" height="50" relative="1" as="geometry">
            <mxPoint x="687.25" y="1673" as="sourcePoint" />
            <mxPoint x="827" y="1673" as="targetPoint" />
          </mxGeometry>
        </mxCell>
        <mxCell id="tOkdCBK18sVMfZ-bkcjU-202" style="edgeStyle=orthogonalEdgeStyle;rounded=0;orthogonalLoop=1;jettySize=auto;html=1;" edge="1" parent="1" source="tOkdCBK18sVMfZ-bkcjU-195" target="tOkdCBK18sVMfZ-bkcjU-147">
          <mxGeometry relative="1" as="geometry" />
        </mxCell>
        <mxCell id="tOkdCBK18sVMfZ-bkcjU-203" value="6. return_nutrition_info_json" style="edgeLabel;html=1;align=center;verticalAlign=middle;resizable=0;points=[];" vertex="1" connectable="0" parent="tOkdCBK18sVMfZ-bkcjU-202">
          <mxGeometry x="-0.2947" relative="1" as="geometry">
            <mxPoint x="45" y="-10" as="offset" />
          </mxGeometry>
        </mxCell>
        <mxCell id="tOkdCBK18sVMfZ-bkcjU-195" value="ClassifierModel" style="fontStyle=0;html=1;whiteSpace=wrap;" vertex="1" parent="1">
          <mxGeometry x="275" y="1650" width="155" height="40" as="geometry" />
        </mxCell>
        <mxCell id="tOkdCBK18sVMfZ-bkcjU-206" value="FLOW" style="swimlane;childLayout=stackLayout;resizeParent=1;resizeParentMax=0;horizontal=1;startSize=20;horizontalStack=0;html=1;" vertex="1" parent="1">
          <mxGeometry x="46" y="-360" width="1244" height="3190" as="geometry" />
        </mxCell>
        <mxCell id="tOkdCBK18sVMfZ-bkcjU-207" value="TRAIN ENTITY RECOGNITION MODEL" style="swimlane;startSize=20;horizontal=0;html=1;" vertex="1" parent="tOkdCBK18sVMfZ-bkcjU-206">
          <mxGeometry y="20" width="1244" height="750" as="geometry" />
        </mxCell>
        <mxCell id="tOkdCBK18sVMfZ-bkcjU-208" value="TRAIN CLASSIFIER MODEL" style="swimlane;startSize=20;horizontal=0;html=1;" vertex="1" parent="tOkdCBK18sVMfZ-bkcjU-206">
          <mxGeometry y="770" width="1244" height="780" as="geometry" />
        </mxCell>
        <mxCell id="tOkdCBK18sVMfZ-bkcjU-209" value="EXTRACT NUTRITION INFORMATION JSON" style="swimlane;startSize=20;horizontal=0;html=1;" vertex="1" parent="tOkdCBK18sVMfZ-bkcjU-206">
          <mxGeometry y="1550" width="1244" height="580" as="geometry" />
        </mxCell>
        <mxCell id="tOkdCBK18sVMfZ-bkcjU-211" value="EVALUATE ENTITY RECOGNITION MODEL" style="swimlane;startSize=20;horizontal=0;html=1;" vertex="1" parent="tOkdCBK18sVMfZ-bkcjU-206">
          <mxGeometry y="2130" width="1244" height="480" as="geometry" />
        </mxCell>
        <mxCell id="tOkdCBK18sVMfZ-bkcjU-213" style="edgeStyle=orthogonalEdgeStyle;rounded=0;orthogonalLoop=1;jettySize=auto;html=1;" edge="1" parent="tOkdCBK18sVMfZ-bkcjU-211" source="tOkdCBK18sVMfZ-bkcjU-214" target="tOkdCBK18sVMfZ-bkcjU-217">
          <mxGeometry relative="1" as="geometry" />
        </mxCell>
        <mxCell id="tOkdCBK18sVMfZ-bkcjU-214" value="Actor" style="shape=umlActor;verticalLabelPosition=bottom;verticalAlign=top;html=1;outlineConnect=0;" vertex="1" parent="tOkdCBK18sVMfZ-bkcjU-211">
          <mxGeometry x="131.25" y="260" width="30" height="60" as="geometry" />
        </mxCell>
        <mxCell id="tOkdCBK18sVMfZ-bkcjU-215" style="edgeStyle=orthogonalEdgeStyle;rounded=0;orthogonalLoop=1;jettySize=auto;html=1;entryX=0;entryY=0.5;entryDx=0;entryDy=0;" edge="1" parent="tOkdCBK18sVMfZ-bkcjU-211" source="tOkdCBK18sVMfZ-bkcjU-217" target="tOkdCBK18sVMfZ-bkcjU-222">
          <mxGeometry relative="1" as="geometry">
            <mxPoint x="560.25" y="290" as="targetPoint" />
            <Array as="points">
              <mxPoint x="475" y="290" />
              <mxPoint x="475" y="245" />
            </Array>
          </mxGeometry>
        </mxCell>
        <mxCell id="tOkdCBK18sVMfZ-bkcjU-216" value="evaluate_entity_recognition_model" style="edgeLabel;html=1;align=center;verticalAlign=middle;resizable=0;points=[];" vertex="1" connectable="0" parent="tOkdCBK18sVMfZ-bkcjU-215">
          <mxGeometry x="-0.2465" y="1" relative="1" as="geometry">
            <mxPoint x="-1" y="21" as="offset" />
          </mxGeometry>
        </mxCell>
        <mxCell id="tOkdCBK18sVMfZ-bkcjU-239" style="edgeStyle=orthogonalEdgeStyle;rounded=0;orthogonalLoop=1;jettySize=auto;html=1;entryX=0;entryY=0.5;entryDx=0;entryDy=0;" edge="1" parent="tOkdCBK18sVMfZ-bkcjU-211" source="tOkdCBK18sVMfZ-bkcjU-217" target="tOkdCBK18sVMfZ-bkcjU-225">
          <mxGeometry relative="1" as="geometry" />
        </mxCell>
        <mxCell id="tOkdCBK18sVMfZ-bkcjU-217" value="" style="aspect=fixed;sketch=0;html=1;dashed=0;whitespace=wrap;verticalLabelPosition=bottom;verticalAlign=top;fillColor=#2875E2;strokeColor=#ffffff;points=[[0.005,0.63,0],[0.1,0.2,0],[0.9,0.2,0],[0.5,0,0],[0.995,0.63,0],[0.72,0.99,0],[0.5,1,0],[0.28,0.99,0]];shape=mxgraph.kubernetes.icon2;kubernetesLabel=1;prIcon=api" vertex="1" parent="tOkdCBK18sVMfZ-bkcjU-211">
          <mxGeometry x="300.25" y="255" width="72.92" height="70" as="geometry" />
        </mxCell>
        <mxCell id="tOkdCBK18sVMfZ-bkcjU-218" value="main.py" style="rounded=1;whiteSpace=wrap;html=1;" vertex="1" parent="tOkdCBK18sVMfZ-bkcjU-211">
          <mxGeometry x="170.25" y="70" width="120" height="60" as="geometry" />
        </mxCell>
        <mxCell id="tOkdCBK18sVMfZ-bkcjU-219" value="run()" style="endArrow=classic;html=1;rounded=0;entryX=0.5;entryY=0;entryDx=0;entryDy=0;entryPerimeter=0;exitX=1;exitY=0.5;exitDx=0;exitDy=0;" edge="1" parent="tOkdCBK18sVMfZ-bkcjU-211" source="tOkdCBK18sVMfZ-bkcjU-218" target="tOkdCBK18sVMfZ-bkcjU-217">
          <mxGeometry x="0.4384" y="-25" width="50" height="50" relative="1" as="geometry">
            <mxPoint x="285.25" y="100" as="sourcePoint" />
            <mxPoint x="350.25" y="240" as="targetPoint" />
            <Array as="points">
              <mxPoint x="335.25" y="100" />
            </Array>
            <mxPoint as="offset" />
          </mxGeometry>
        </mxCell>
        <mxCell id="tOkdCBK18sVMfZ-bkcjU-240" style="edgeStyle=orthogonalEdgeStyle;rounded=0;orthogonalLoop=1;jettySize=auto;html=1;entryX=0;entryY=0.5;entryDx=0;entryDy=0;" edge="1" parent="tOkdCBK18sVMfZ-bkcjU-211" source="tOkdCBK18sVMfZ-bkcjU-222" target="tOkdCBK18sVMfZ-bkcjU-238">
          <mxGeometry relative="1" as="geometry">
            <Array as="points">
              <mxPoint x="824" y="245" />
              <mxPoint x="824" y="273" />
            </Array>
          </mxGeometry>
        </mxCell>
        <mxCell id="tOkdCBK18sVMfZ-bkcjU-222" value="EntityRecognitionModel" style="fontStyle=0;html=1;whiteSpace=wrap;" vertex="1" parent="tOkdCBK18sVMfZ-bkcjU-211">
          <mxGeometry x="575.75" y="220" width="180" height="50" as="geometry" />
        </mxCell>
        <mxCell id="tOkdCBK18sVMfZ-bkcjU-241" style="edgeStyle=orthogonalEdgeStyle;rounded=0;orthogonalLoop=1;jettySize=auto;html=1;entryX=0;entryY=0.5;entryDx=0;entryDy=0;" edge="1" parent="tOkdCBK18sVMfZ-bkcjU-211" source="tOkdCBK18sVMfZ-bkcjU-225" target="tOkdCBK18sVMfZ-bkcjU-238">
          <mxGeometry relative="1" as="geometry" />
        </mxCell>
        <mxCell id="tOkdCBK18sVMfZ-bkcjU-243" value="feed_model_and_dataset" style="edgeLabel;html=1;align=center;verticalAlign=middle;resizable=0;points=[];" vertex="1" connectable="0" parent="tOkdCBK18sVMfZ-bkcjU-241">
          <mxGeometry x="-0.4477" y="2" relative="1" as="geometry">
            <mxPoint x="20" y="-65" as="offset" />
          </mxGeometry>
        </mxCell>
        <mxCell id="tOkdCBK18sVMfZ-bkcjU-225" value="EntityRecognitionDataset" style="fontStyle=0;html=1;whiteSpace=wrap;" vertex="1" parent="tOkdCBK18sVMfZ-bkcjU-211">
          <mxGeometry x="575.75" y="275" width="184.25" height="45" as="geometry" />
        </mxCell>
        <mxCell id="tOkdCBK18sVMfZ-bkcjU-242" style="edgeStyle=orthogonalEdgeStyle;rounded=0;orthogonalLoop=1;jettySize=auto;html=1;" edge="1" parent="tOkdCBK18sVMfZ-bkcjU-211" source="tOkdCBK18sVMfZ-bkcjU-238" target="tOkdCBK18sVMfZ-bkcjU-214">
          <mxGeometry relative="1" as="geometry">
            <Array as="points">
              <mxPoint x="986" y="400" />
              <mxPoint x="146" y="400" />
            </Array>
          </mxGeometry>
        </mxCell>
        <mxCell id="tOkdCBK18sVMfZ-bkcjU-244" value="return_metrics" style="edgeLabel;html=1;align=center;verticalAlign=middle;resizable=0;points=[];" vertex="1" connectable="0" parent="tOkdCBK18sVMfZ-bkcjU-242">
          <mxGeometry x="-0.6389" y="2" relative="1" as="geometry">
            <mxPoint x="-272" y="8" as="offset" />
          </mxGeometry>
        </mxCell>
        <mxCell id="tOkdCBK18sVMfZ-bkcjU-238" value="EntityRecognitionModelEvaluator" style="fontStyle=0;html=1;whiteSpace=wrap;" vertex="1" parent="tOkdCBK18sVMfZ-bkcjU-211">
          <mxGeometry x="894" y="250" width="184.25" height="45" as="geometry" />
        </mxCell>
        <mxCell id="tOkdCBK18sVMfZ-bkcjU-212" value="EVALUATE CLASSIFIER MODEL" style="swimlane;startSize=20;horizontal=0;html=1;" vertex="1" parent="tOkdCBK18sVMfZ-bkcjU-206">
          <mxGeometry y="2610" width="1244" height="580" as="geometry" />
        </mxCell>
        <mxCell id="tOkdCBK18sVMfZ-bkcjU-267" style="edgeStyle=orthogonalEdgeStyle;rounded=0;orthogonalLoop=1;jettySize=auto;html=1;" edge="1" parent="tOkdCBK18sVMfZ-bkcjU-212" source="tOkdCBK18sVMfZ-bkcjU-268" target="tOkdCBK18sVMfZ-bkcjU-272">
          <mxGeometry relative="1" as="geometry" />
        </mxCell>
        <mxCell id="tOkdCBK18sVMfZ-bkcjU-268" value="Actor" style="shape=umlActor;verticalLabelPosition=bottom;verticalAlign=top;html=1;outlineConnect=0;" vertex="1" parent="tOkdCBK18sVMfZ-bkcjU-212">
          <mxGeometry x="131.25" y="270" width="30" height="60" as="geometry" />
        </mxCell>
        <mxCell id="tOkdCBK18sVMfZ-bkcjU-269" style="edgeStyle=orthogonalEdgeStyle;rounded=0;orthogonalLoop=1;jettySize=auto;html=1;entryX=0;entryY=0.5;entryDx=0;entryDy=0;" edge="1" parent="tOkdCBK18sVMfZ-bkcjU-212" source="tOkdCBK18sVMfZ-bkcjU-272" target="tOkdCBK18sVMfZ-bkcjU-276">
          <mxGeometry relative="1" as="geometry">
            <mxPoint x="560.25" y="300" as="targetPoint" />
            <Array as="points">
              <mxPoint x="475" y="300" />
              <mxPoint x="475" y="255" />
            </Array>
          </mxGeometry>
        </mxCell>
        <mxCell id="tOkdCBK18sVMfZ-bkcjU-270" value="evaluate_classifier_model" style="edgeLabel;html=1;align=center;verticalAlign=middle;resizable=0;points=[];" vertex="1" connectable="0" parent="tOkdCBK18sVMfZ-bkcjU-269">
          <mxGeometry x="-0.2465" y="1" relative="1" as="geometry">
            <mxPoint x="-1" y="21" as="offset" />
          </mxGeometry>
        </mxCell>
        <mxCell id="tOkdCBK18sVMfZ-bkcjU-271" style="edgeStyle=orthogonalEdgeStyle;rounded=0;orthogonalLoop=1;jettySize=auto;html=1;entryX=0;entryY=0.5;entryDx=0;entryDy=0;" edge="1" parent="tOkdCBK18sVMfZ-bkcjU-212" source="tOkdCBK18sVMfZ-bkcjU-272" target="tOkdCBK18sVMfZ-bkcjU-279">
          <mxGeometry relative="1" as="geometry" />
        </mxCell>
        <mxCell id="tOkdCBK18sVMfZ-bkcjU-272" value="" style="aspect=fixed;sketch=0;html=1;dashed=0;whitespace=wrap;verticalLabelPosition=bottom;verticalAlign=top;fillColor=#2875E2;strokeColor=#ffffff;points=[[0.005,0.63,0],[0.1,0.2,0],[0.9,0.2,0],[0.5,0,0],[0.995,0.63,0],[0.72,0.99,0],[0.5,1,0],[0.28,0.99,0]];shape=mxgraph.kubernetes.icon2;kubernetesLabel=1;prIcon=api" vertex="1" parent="tOkdCBK18sVMfZ-bkcjU-212">
          <mxGeometry x="300.25" y="265" width="72.92" height="70" as="geometry" />
        </mxCell>
        <mxCell id="tOkdCBK18sVMfZ-bkcjU-273" value="main.py" style="rounded=1;whiteSpace=wrap;html=1;" vertex="1" parent="tOkdCBK18sVMfZ-bkcjU-212">
          <mxGeometry x="170.25" y="80" width="120" height="60" as="geometry" />
        </mxCell>
        <mxCell id="tOkdCBK18sVMfZ-bkcjU-274" value="run()" style="endArrow=classic;html=1;rounded=0;entryX=0.5;entryY=0;entryDx=0;entryDy=0;entryPerimeter=0;exitX=1;exitY=0.5;exitDx=0;exitDy=0;" edge="1" parent="tOkdCBK18sVMfZ-bkcjU-212" source="tOkdCBK18sVMfZ-bkcjU-273" target="tOkdCBK18sVMfZ-bkcjU-272">
          <mxGeometry x="0.4384" y="-25" width="50" height="50" relative="1" as="geometry">
            <mxPoint x="285.25" y="110" as="sourcePoint" />
            <mxPoint x="350.25" y="250" as="targetPoint" />
            <Array as="points">
              <mxPoint x="335.25" y="110" />
            </Array>
            <mxPoint as="offset" />
          </mxGeometry>
        </mxCell>
        <mxCell id="tOkdCBK18sVMfZ-bkcjU-275" style="edgeStyle=orthogonalEdgeStyle;rounded=0;orthogonalLoop=1;jettySize=auto;html=1;entryX=0;entryY=0.5;entryDx=0;entryDy=0;" edge="1" parent="tOkdCBK18sVMfZ-bkcjU-212" source="tOkdCBK18sVMfZ-bkcjU-276" target="tOkdCBK18sVMfZ-bkcjU-282">
          <mxGeometry relative="1" as="geometry">
            <Array as="points">
              <mxPoint x="824" y="255" />
              <mxPoint x="824" y="283" />
            </Array>
          </mxGeometry>
        </mxCell>
        <mxCell id="tOkdCBK18sVMfZ-bkcjU-276" value="ClassifierModel" style="fontStyle=0;html=1;whiteSpace=wrap;" vertex="1" parent="tOkdCBK18sVMfZ-bkcjU-212">
          <mxGeometry x="575.75" y="230" width="180" height="50" as="geometry" />
        </mxCell>
        <mxCell id="tOkdCBK18sVMfZ-bkcjU-277" style="edgeStyle=orthogonalEdgeStyle;rounded=0;orthogonalLoop=1;jettySize=auto;html=1;entryX=0;entryY=0.5;entryDx=0;entryDy=0;" edge="1" parent="tOkdCBK18sVMfZ-bkcjU-212" source="tOkdCBK18sVMfZ-bkcjU-279" target="tOkdCBK18sVMfZ-bkcjU-282">
          <mxGeometry relative="1" as="geometry" />
        </mxCell>
        <mxCell id="tOkdCBK18sVMfZ-bkcjU-278" value="feed_model_and_dataset" style="edgeLabel;html=1;align=center;verticalAlign=middle;resizable=0;points=[];" vertex="1" connectable="0" parent="tOkdCBK18sVMfZ-bkcjU-277">
          <mxGeometry x="-0.4477" y="2" relative="1" as="geometry">
            <mxPoint x="20" y="-65" as="offset" />
          </mxGeometry>
        </mxCell>
        <mxCell id="tOkdCBK18sVMfZ-bkcjU-279" value="ClassifierDataset" style="fontStyle=0;html=1;whiteSpace=wrap;" vertex="1" parent="tOkdCBK18sVMfZ-bkcjU-212">
          <mxGeometry x="575.75" y="285" width="184.25" height="45" as="geometry" />
        </mxCell>
        <mxCell id="tOkdCBK18sVMfZ-bkcjU-280" style="edgeStyle=orthogonalEdgeStyle;rounded=0;orthogonalLoop=1;jettySize=auto;html=1;" edge="1" parent="tOkdCBK18sVMfZ-bkcjU-212" source="tOkdCBK18sVMfZ-bkcjU-282" target="tOkdCBK18sVMfZ-bkcjU-268">
          <mxGeometry relative="1" as="geometry">
            <Array as="points">
              <mxPoint x="986" y="410" />
              <mxPoint x="146" y="410" />
            </Array>
          </mxGeometry>
        </mxCell>
        <mxCell id="tOkdCBK18sVMfZ-bkcjU-281" value="return_metrics" style="edgeLabel;html=1;align=center;verticalAlign=middle;resizable=0;points=[];" vertex="1" connectable="0" parent="tOkdCBK18sVMfZ-bkcjU-280">
          <mxGeometry x="-0.6389" y="2" relative="1" as="geometry">
            <mxPoint x="-272" y="8" as="offset" />
          </mxGeometry>
        </mxCell>
        <mxCell id="tOkdCBK18sVMfZ-bkcjU-282" value="ClassifierModelEvaluator" style="fontStyle=0;html=1;whiteSpace=wrap;" vertex="1" parent="tOkdCBK18sVMfZ-bkcjU-212">
          <mxGeometry x="894" y="260" width="184.25" height="45" as="geometry" />
        </mxCell>
      </root>
    </mxGraphModel>
  </diagram>
</mxfile>
